<?xml version="1.0" standalone="no"?>
<!DOCTYPE svg PUBLIC "-//W3C//DTD SVG 20010904//EN"
 "http://www.w3.org/TR/2001/REC-SVG-20010904/DTD/svg10.dtd">
<svg version="1.0" xmlns="http://www.w3.org/2000/svg"
 width="512.000000pt" height="512.000000pt" viewBox="0 0 512.000000 512.000000"
 preserveAspectRatio="xMidYMid meet">
<metadata>
Created by potrace 1.14, written by Peter Selinger 2001-2017
</metadata>
<g transform="translate(0.000000,512.000000) scale(0.100000,-0.100000)"
fill="#000000" stroke="none">
<path d="M2527 4864 c-1 -1 -72 -4 -157 -8 -85 -4 -168 -8 -185 -10 -16 -2
-70 -7 -119 -11 -331 -25 -588 -104 -766 -235 -112 -83 -128 -108 -134 -210 0
-14 -4 -27 -8 -30 -3 -3 -8 -18 -11 -35 -30 -160 -58 -329 -62 -370 -3 -27 -8
-57 -10 -65 -4 -15 -12 -80 -20 -170 -3 -25 -7 -67 -11 -95 -32 -257 -39
-1009 -10 -1185 3 -14 7 -59 11 -100 7 -83 9 -102 31 -240 68 -417 233 -771
559 -1196 204 -266 374 -419 560 -504 39 -17 77 -35 85 -39 8 -4 39 -14 69
-21 31 -7 74 -28 99 -46 24 -19 57 -35 73 -35 16 -1 35 -2 42 -2 28 -2 87 15
82 23 -3 6 0 7 8 4 8 -3 23 5 34 19 12 16 34 27 63 32 25 4 50 10 55 13 6 4
16 7 23 8 33 5 207 100 269 146 61 46 177 151 224 203 80 90 175 211 303 391
107 150 246 411 314 589 45 118 93 320 118 490 3 22 7 51 9 64 2 13 7 58 11
100 4 42 8 90 10 106 24 248 24 835 0 1080 -33 326 -38 369 -47 391 -4 12 -6
24 -4 26 4 4 -11 95 -60 373 -4 25 -11 55 -20 85 -1 3 -5 24 -9 47 -4 23 -17
54 -29 69 -24 31 -173 144 -190 144 -6 0 -18 6 -26 13 -21 18 -151 71 -221 90
-102 28 -240 54 -330 62 -25 3 -63 7 -85 9 -109 14 -529 37 -538 30z"/>
</g>
</svg>
